<svg xmlns="http://www.w3.org/2000/svg" version="1.1" xmlns:xlink="http://www.w3.org/1999/xlink" xmlns:svgjs="http://svgjs.com/svgjs" height="33" width="172" viewBox="0 0 70 70"><defs id="SvgjsDefs1719"></defs><g id="SvgjsG1720" rel="mainfill" name="main_text" xmlns:name="main_text" transform="translate(-60,-210)" fill="#607282"><path d="M29.95 224.94L34.08 220.90L40.84 218.94Q41.44 219.28 41.95 219.66Q42.29 219.92 42.84 220.43L44.12 221.71Q45.01 222.73 45.44 223.62Q45.78 224.51 45.78 225.49Q45.78 226.04 45.74 226.68Q45.69 227.32 45.57 228.13L44.72 233.41L44.25 236.30L44.21 236.55L44.16 236.85L44.04 237.32Q42.38 238.77 40.72 239.62L35.99 241.53L33.87 242.17L34.59 240.64L35.14 238.60Q36.33 233.66 36.33 230.00L36.29 228.73L33.36 225.87L31.91 227.83Q31.53 228.43 30.89 229.87Q30.51 230.77 30.12 231.62L29.10 239.36L19.78 240.64L21.32 232.09L21.32 227.70L18.42 225.32Q17.74 226.04 17.27 226.64Q16.81 227.24 16.42 227.83Q15.53 229.24 14.64 231.41L13.87 239.36L4.47 240.64L5.57 229.41L0.13 221.49L6.34 220.30L10.25 218.00L14.17 221.19L14.38 224.90L17.57 221.24L25.61 218.68L29.70 222.30L29.95 224.94ZM80.67 217.54L58.93 248.93L50.67 250.30L59.61 237.75L55.01 226.64L47.61 220.60L53.78 219.37L57.57 217.11L62.76 219.83L65.78 230.43L71.14 219.41L80.67 217.54ZM94.20 216.90L101.39 219.62L99.13 228.73Q97.81 226.98 96.20 225.75Q95.26 224.90 94.28 224.47Q92.71 223.66 89.99 223.11L89.22 225.66Q88.75 227.87 88.75 229.83Q88.75 231.92 89.86 232.89Q90.96 233.87 93.39 233.87Q94.50 233.87 95.13 233.83Q95.77 233.79 96.84 233.66Q97.90 233.53 99.07 233.36Q100.24 233.19 101.47 232.94L97.86 239.70Q96.24 240.17 94.75 240.38Q92.37 240.77 90.45 240.77Q88.41 240.77 86.71 240.34Q84.88 239.96 83.48 239.15Q82.75 238.77 82.18 238.34Q81.60 237.92 81.14 237.32Q79.52 235.32 79.52 232.17Q79.52 230.90 79.69 229.58Q79.86 228.26 80.20 226.60Q80.80 224.26 82.03 221.28L88.54 219.83L90.45 218.68L92.33 217.62Q93.47 217.03 94.20 216.90ZM121.94 218.09Q124.15 218.43 125.96 219.11Q127.77 219.79 128.66 220.34Q130.40 221.41 131.49 223.51Q132.57 225.62 132.57 227.79Q132.57 229.83 131.68 231.49Q131.04 232.64 129.77 233.66Q128.66 234.55 126.02 235.96L122.83 237.79Q121.26 238.72 119.38 240.81Q114.70 240.17 112.02 239.26Q109.34 238.34 107.66 237.02Q105.98 235.70 105.17 233.92Q104.37 232.13 104.37 229.66Q104.37 227.19 105.34 225.09Q106.32 222.98 108.15 221.53Q109.56 220.43 111.64 219.79Q112.66 219.49 114.05 219.19Q115.43 218.90 117.09 218.73Q115.43 220.26 114.34 222.60Q113.26 224.94 113.26 227.28Q113.26 230.72 116.49 232.32Q119.73 233.92 123.09 234.26Q123.51 232.30 123.51 230.94Q123.51 227.62 121.41 225.70Q119.30 223.79 115.13 223.41L121.94 218.09ZM157.80 218.94L156.02 224.47Q154.53 223.66 154.32 223.58Q153.63 223.24 152.91 223.07Q151.59 222.64 149.59 222.39Q147.59 222.13 145.55 222.13L144.87 222.13L144.70 222.60L144.44 223.58L144.32 224.34Q144.32 224.81 144.64 225.00Q144.95 225.19 146.23 225.32L149.64 225.41L153.89 225.70Q157.21 226.04 158.02 226.51Q158.61 226.85 159.00 227.73Q159.38 228.60 159.38 229.49Q159.38 231.96 158.02 235.92Q157.17 236.09 156.97 236.15Q156.78 236.21 156.14 236.51Q155.51 236.81 154.23 237.75Q153.46 238.26 153.12 238.55Q152.95 238.68 152.25 239.36Q151.55 240.04 150.32 241.62Q148.66 241.62 147.49 241.47Q146.32 241.32 143.93 240.85L140.27 240.13L137.34 239.53L136.32 239.15L135.98 233.11L137.30 233.75Q138.62 234.21 141.62 234.81Q144.61 235.41 147.17 235.66L150.10 235.96L150.91 236.00L151.04 234.81Q151.04 233.83 150.49 233.45Q150.19 233.24 149.64 233.09Q149.08 232.94 148.32 232.94L144.40 232.55L140.96 232.30Q137.76 231.96 137.04 230.51Q136.53 229.53 136.53 227.02Q136.53 225.07 137.04 222.81L141.08 221.19L142.06 220.47L142.57 220.05L144.95 218.26Q145.47 217.92 146.38 217.62Q147.30 217.32 149.04 217.32Q151.98 217.32 154.61 217.96Q155.93 218.26 157.80 218.94ZM191.25 224.94L195.37 220.90L202.14 218.94Q202.73 219.28 203.24 219.66Q203.58 219.92 204.14 220.43L205.41 221.71Q206.31 222.73 206.73 223.62Q207.07 224.51 207.07 225.49Q207.07 226.04 207.03 226.68Q206.99 227.32 206.86 228.13L206.01 233.41L205.54 236.30L205.50 236.55L205.46 236.85L205.33 237.32Q203.67 238.77 202.01 239.62L197.29 241.53L195.16 242.17L195.88 240.64L196.44 238.60Q197.63 233.66 197.63 230.00L197.58 228.73L194.65 225.87L193.20 227.83Q192.82 228.43 192.18 229.87Q191.80 230.77 191.42 231.62L190.39 239.36L181.08 240.64L182.61 232.09L182.61 227.70L179.72 225.32Q179.03 226.04 178.57 226.64Q178.10 227.24 177.72 227.83Q176.82 229.24 175.93 231.41L175.16 239.36L165.76 240.64L166.87 229.41L161.42 221.49L167.63 220.30L171.55 218.00L175.46 221.19L175.67 224.90L178.86 221.24L186.91 218.68L190.99 222.30L191.25 224.94ZM220.94 230.55Q223.15 230.00 224.15 229.17Q225.15 228.34 225.15 227.11Q225.15 225.83 224.13 224.73Q223.62 224.17 222.84 223.64Q222.05 223.11 220.81 222.56Q220.39 223.58 220.18 224.94Q219.79 227.24 219.79 228.73Q219.79 230.90 220.35 232.00Q220.60 232.60 221.03 233.00Q221.45 233.41 222.18 233.70Q223.50 234.17 225.75 234.17Q227.32 234.17 229.09 233.87Q230.86 233.58 233.45 232.60L229.62 239.49L228.73 239.74Q228.09 239.91 227.54 240.02Q226.98 240.13 225.37 240.34Q223.75 240.55 222.47 240.55Q219.67 240.55 216.67 239.68Q213.67 238.81 212.01 236.60Q210.35 234.38 210.35 231.24Q210.35 228.68 210.86 226.15Q211.37 223.62 212.26 222.22Q212.52 221.83 212.73 221.60Q212.94 221.36 213.33 221.15Q213.71 220.94 214.09 220.77Q214.48 220.60 215.09 220.45Q215.71 220.30 216.62 220.11Q217.54 219.92 218.47 219.75L221.84 218.47Q222.77 218.09 223.75 217.66Q224.35 217.41 225.11 217.20Q225.88 216.98 226.73 216.98Q227.79 216.98 229.28 217.79Q230.77 218.60 232.30 220.00Q233.83 221.41 233.83 223.36Q233.83 223.92 233.79 224.26Q233.75 224.60 233.62 225.24Q233.11 227.58 231.71 228.81Q229.24 230.81 224.30 230.81Q222.98 230.81 220.94 230.55ZM252.43 210.35L250.72 219.41L258.47 219.41L256.09 224.51L249.96 224.26L249.11 230.77L249.11 231.11L249.07 231.45Q249.07 233.96 250.92 235.06Q252.77 236.17 256.00 236.17Q257.19 236.17 258.32 235.96Q259.45 235.75 261.15 235.19L258.68 239.53L257.83 239.83L257.02 240.09L256.43 240.30Q253.62 241.11 250.81 241.11Q248.56 241.11 246.19 240.60Q243.83 240.09 242.47 239.36Q241.53 238.85 240.77 237.66Q240.09 236.43 240.09 235.45L240.09 235.19L240.90 224.30L234.98 224.43L238.00 219.41L241.83 219.41L242.73 214.47L252.43 210.35Z" fill="#607282"></path></g><g id="SvgjsG1721" rel="mainfill" name="slogan_text" xmlns:name="slogan_text" transform="translate(20,-177.03828125)" fill="#607282"><path d="M7.01 237.21C5.92 234.41 4.69 231.61 3.35 228.81L1.62 228.81L1.62 240L2.74 240L2.74 230.10C4.06 232.99 5.31 235.89 6.52 238.78L7.37 238.78C8.55 235.96 9.82 233.05 11.19 230.10L11.19 240L12.34 240L12.34 228.81L10.72 228.81C9.36 231.59 8.09 234.40 7.01 237.21ZM21.81 234.62C23.34 232.76 24.78 230.80 26.18 228.81L24.85 228.81C23.77 230.45 22.55 232.15 21.31 233.71C20.22 232.06 18.99 230.35 17.74 228.81L16.27 228.81C17.93 230.84 19.37 232.76 20.64 234.62L20.64 240L21.81 240ZM36.51 234.30C36.51 238.86 38.17 240.22 41.63 240.22C42.63 240.22 43.90 240.05 44.76 239.78L44.39 238.75C43.72 239.00 42.52 239.17 41.65 239.17C38.82 239.17 37.77 238.40 37.77 234.30C37.77 230.19 38.82 229.58 41.65 229.58C42.52 229.58 43.72 229.74 44.39 230.02L44.76 228.97C43.90 228.72 42.63 228.54 41.63 228.54C38.17 228.54 36.51 229.73 36.51 234.30ZM50.35 234.53L56.29 234.53L56.29 240L57.43 240L57.43 228.81L56.29 228.81L56.29 233.48L50.35 233.48L50.35 228.81L49.19 228.81L49.19 240L50.35 240ZM67.52 240.22C64.04 240.22 62.45 238.97 62.45 234.35C62.45 229.79 64.06 228.54 67.52 228.54C71.01 228.54 72.61 229.79 72.61 234.35C72.61 238.97 71.02 240.22 67.52 240.22ZM67.52 229.52C64.68 229.52 63.70 230.27 63.70 234.38C63.70 238.28 64.68 239.21 67.52 239.21C70.40 239.21 71.39 238.28 71.39 234.38C71.39 230.27 70.40 229.52 67.52 229.52ZM78.81 228.81L78.81 240L77.65 240L77.65 228.81ZM83.83 234.30C83.83 238.86 85.48 240.22 88.95 240.22C89.94 240.22 91.21 240.05 92.08 239.78L91.71 238.75C91.04 239.00 89.83 239.17 88.97 239.17C86.14 239.17 85.08 238.40 85.08 234.30C85.08 230.19 86.14 229.58 88.97 229.58C89.83 229.58 91.04 229.74 91.71 230.02L92.08 228.97C91.21 228.72 89.94 228.54 88.95 228.54C85.48 228.54 83.83 229.73 83.83 234.30ZM104.16 228.81L104.16 229.78L97.66 229.78L97.66 233.53L102.27 233.53L102.27 234.49L97.66 234.49L97.66 239.04L104.16 239.04L104.16 240L96.51 240L96.51 228.81Z" fill="#000000" style="fill: rgb(0, 0, 0);"></path></g><g id="SvgjsG1722" rel="mainfill" name="symbol" xmlns:name="symbol_mainfill" transform="translate(-140,-3.344765625) scale(0.71)" fill="#607282"><g fill="#607282"><g fill="#607282"><path fill-rule="evenodd" clip-rule="evenodd" d="M72.604,35.565L50.038,7.749L27.561,35.565L2.691,4.801l6.355,68.422h82.165    l6.079-68.514L72.604,35.565z M8.905,95.884h82.216V84.098H8.905V95.884z" fill="#607282"></path></g></g></g></svg>