<svg xmlns="http://www.w3.org/2000/svg" viewBox="0 0 496 496" height="21">
<g>
	<g>
		<g>
			<rect fill="#607282" stroke-width="1" x="115.732" y="400" width="80" height="16"/>
			<path fill="#607282" stroke-width="1" d="M492.268,72H315.196l3.128,48h-34.592V88h16V48v-8V24c0-13.232-10.768-24-24-24h-48c-13.232,0-24,10.768-24,24v16h-168
				v48h184v32h-56c-26.472,0-48,21.528-48,48v104h-40c-17.648,0-32,14.352-32,32v16h-16c-13.232,0-24,10.768-24,24v128
				c0,13.232,10.768,24,24,24h248h8h80h80c17.648,0,32-14.352,32-32c0-7.864-2.96-14.984-7.688-20.56L492.268,72z M470.5,160
				H336.964l-2.608-40h138.752L470.5,160z M475.196,88l-1.04,16h-140.84l-1.04-16H475.196z M219.732,24c0-4.408,3.592-8,8-8h48
				c4.408,0,8,3.592,8,8v16h-64V24z M51.732,72V56h232v16H51.732z M267.732,88v32h-32V88H267.732z M131.732,168
				c0-17.648,14.352-32,32-32h155.632l3.648,56h-191.28V168z M59.732,304c0-8.824,7.176-16,16-16h160c8.824,0,16,7.176,16,16v16
				h-192V304z M291.732,472c0,4.408-3.592,8-8,8h-8h-248c-4.408,0-8-3.592-8-8v-8h272V472z M291.732,448h-272v-80h272V448z
				 M291.732,352h-272v-8c0-4.408,3.592-8,8-8h16h224h16c4.408,0,8,3.592,8,8V352z M283.732,320h-16v-16c0-17.648-14.352-32-32-32
				h-104v-64H324.06l8.872,136h-25.2C307.732,330.768,296.964,320,283.732,320z M336.18,480h-29.928c0.904-2.512,1.48-5.184,1.48-8
				V360h26.24l5.44,83.44c-4.72,5.576-7.68,12.696-7.68,20.56C331.732,469.856,333.428,475.272,336.18,480z M443.732,480h-80
				c-8.824,0-16-7.176-16-16c0-8.824,7.176-16,16-16h80c8.824,0,16,7.176,16,16C459.732,472.824,452.556,480,443.732,480z
				 M347.924,328H459.54l-6.872,105.424c-2.856-0.832-5.816-1.424-8.936-1.424h-80c-3.12,0-6.08,0.592-8.936,1.424L347.924,328z
				 M460.58,312H346.884l-8.872-136h131.44L460.58,312z"/>
			<rect fill="#607282" stroke-width="1" x="355.732" y="224" width="96" height="16"/>
			<path fill="#607282" stroke-width="1" d="M35.732,192c17.648,0,32-14.352,32-32c0-6.88-2.272-13.704-6.4-19.2l-25.6-34.136l-25.6,34.136
				c-4.128,5.496-6.4,12.32-6.4,19.2C3.732,177.648,18.084,192,35.732,192z M22.932,150.4l12.8-17.064l12.8,17.072
				c2.064,2.744,3.2,6.152,3.2,9.592c0,8.824-7.176,16-16,16s-16-7.176-16-16C19.732,156.56,20.868,153.152,22.932,150.4z"/>
			<rect fill="#607282" stroke-width="1" x="435.732" y="256" width="16" height="16"/>
			<rect fill="#607282" stroke-width="1" x="355.732" y="256" width="64" height="16"/>
		</g>
	</g>
</g>
</svg>
