<svg xmlns="http://www.w3.org/2000/svg" viewBox="0 0 507.312 507.312" height="19">
<g>
	<g>
		<g>
			<path fill="#607282" stroke-width="1" d="M265.968,180.528l56.72,56.72c8.967,9.012,21.159,14.074,33.872,14.064c1.775-0.001,3.548-0.097,5.312-0.288
				c14.46-1.574,27.416-9.648,35.2-21.936l56.832-89.328l49.312-49.248l-22.624-22.624l-39.184,39.184l-45.504-45.456l39.376-38.992
				L412.704,0l-49.248,49.264l-89.328,56.832c-22.362,14.238-28.948,43.908-14.71,66.269
				C261.297,175.317,263.494,178.054,265.968,180.528z M288.617,135.277c0.826-0.827,1.741-1.561,2.727-2.189h-0.032l80-50.88
				l49.968,49.952l-51.12,79.744c-4.744,7.455-14.633,9.653-22.089,4.909c-0.986-0.628-1.901-1.362-2.727-2.189l-56.72-56.72
				C282.374,151.658,282.37,141.527,288.617,135.277z"/>
			<path fill="#607282" stroke-width="1" d="M251.904,267.312c-39.434,0.572-78.313,9.379-114.144,25.856c29.931-24.427,64.668-42.28,101.952-52.4l-7.616-31.056
				C113.216,238.768,27.392,359.616,15.472,377.168L4.096,388.912l13.92,10.928c5.568,4.432,138.112,107.472,265.888,107.472
				c132.144,0,203.376-141.568,206.4-147.6l6.048-12.4l-11.344-7.84C415.415,294.453,334.76,269.486,251.904,267.312z
				 M251.904,299.312c15.446,0.051,30.87,1.174,46.16,3.36c-6.123,21.079-28.174,33.203-49.253,27.08
				c-13.442-3.904-23.839-14.592-27.371-28.136C231.526,300.119,241.707,299.349,251.904,299.312z M190.128,308.272
				c9.214,38.528,47.916,62.292,86.443,53.079c26.203-6.266,46.684-26.687,53.029-52.871c8.939,2.048,17.573,4.32,25.904,6.816
				c-4.609,52.819-51.163,91.9-103.982,87.291c-45.824-3.999-82.372-39.94-87.138-85.691
				C172.72,313.712,181.296,310.752,190.128,308.272z M283.904,475.312c-93.024,0-193.456-63.376-230.912-89.52
				c24.723-21.621,51.959-40.187,81.12-55.296c12.737,69.455,79.366,115.434,148.821,102.697
				c53.995-9.902,95.643-53.165,103.483-107.497c23.536,8.92,46.301,19.756,68.064,32.4
				C434.88,390.72,375.104,475.312,283.904,475.312z"/>
			<rect fill="#607282" stroke-width="1" x="107.904" y="91.312" width="112" height="32"/>
			<rect fill="#607282" stroke-width="1" x="43.904" y="91.312" width="32" height="32"/>
			<rect fill="#607282" stroke-width="1" x="75.904" y="27.312" width="32" height="32"/>
			<rect fill="#607282" stroke-width="1" x="139.904" y="27.312" width="112" height="32"/>
		</g>
	</g>
</g>
</svg>
