<svg xmlns="http://www.w3.org/2000/svg" viewBox="0 0 512 512" height="19">
<g>
	<g>
		<path fill="#607282" stroke-width="1" d="M510.689,10.535C508.04,4.131,501.778-0.033,494.848,0H350.556c-6.843-0.02-13.412,2.69-18.25,7.529l-54.283,54.142
			c-4.867,4.803-7.607,11.356-7.609,18.194c-0.002,6.838,2.736,13.392,7.6,18.198l12.241,12.125l-61.601,60.71
			c-1.227-2.381-2.479-4.748-3.905-6.976l-0.009-0.03l-0.084-0.137l-0.108-0.192l-0.12-0.179c-0.92-1.595-1.946-3.126-3.071-4.583
			l-0.03-0.038l-0.086-0.129c-2.059-2.895-4.276-5.674-6.642-8.325l-0.007,0.007l-0.102-0.128l-0.078-0.056
			c-0.198-0.218-0.402-0.438-0.622-0.648c-1.163-1.249-2.343-2.468-3.527-3.602c-0.159-0.152-0.299-0.32-0.457-0.469l-0.043-0.027
			c-14.261-13.78-32.606-22.564-52.282-25.036c-1.714-0.283-3.441-0.476-5.175-0.579c-0.488-0.076-0.981-0.12-1.475-0.129
			c-0.664-0.065-1.332-0.084-1.999-0.058c-0.257-0.003-0.51-0.033-0.768-0.033l-0.042,0.009c-0.954-0.053-1.932-0.091-2.941-0.091
			h-17.067c-1.907,0-3.794,0.085-5.204,0.167c-0.17,0.008-0.353,0.008-0.521,0.017l-0.093,0.024
			c-0.471-0.006-0.941,0.027-1.407,0.097c-1.619,0.092-3.232,0.269-4.833,0.529l-0.234,0.039l-0.107,0.011l-0.03,0.011
			c-19.677,2.491-38.022,11.279-52.296,25.051c-1.3,1.229-2.542,2.529-4.067,4.171c-0.201,0.18-0.392,0.371-0.572,0.572
			l-0.045,0.032l-0.079,0.091l-0.03,0.03l-0.049,0.062c-2.338,2.514-4.486,5.198-6.426,8.03l-0.117,0.174l-0.067,0.084
			c-1.133,1.6-2.25,3.209-3.191,4.738c-0.078,0.12-0.134,0.255-0.211,0.375l-0.081,0.121l-0.016,0.051
			c-7.01,11.2-11.529,23.777-13.251,36.877C12.771,221.767,0.081,250.992,0.015,281.6v213.333
			C0.025,504.355,7.66,511.989,17.081,512h238.933c9.421-0.011,17.056-7.645,17.067-17.067V281.6
			c-0.043-22.43-6.873-44.322-19.592-62.797l73.394-72.333l12.381,12.264c10.126,9.969,26.377,9.973,36.508,0.009l131.15-129.559
			C511.85,24.31,513.339,16.939,510.689,10.535z M51.215,213.334c0-2.633,0.158-5.112,0.392-7.671l0.012-0.245l0.003-0.054
			l0.002-0.034c0.017-0.117,0.033-0.237,0.042-0.354h0.009c1.249-11.569,5.159-22.691,11.425-32.496
			c0.842-1.379,1.758-2.671,2.658-3.946c1.668-2.341,3.459-4.591,5.367-6.741c0.233-0.221,0.442-0.429,0.583-0.583
			c0.91-0.971,1.848-1.946,2.845-2.916c0.147-0.14,0.275-0.292,0.422-0.43l0.007-0.009l0.06-0.061
			c11.823-11.408,27.047-18.644,43.358-20.608c1.294-0.209,2.599-0.345,3.908-0.408c0.273-0.012,0.545-0.04,0.815-0.082l0.035-0.001
			c1.567-0.08,3.217-0.159,4.859-0.159h17.067c0.75-0.004,1.525-0.012,2.983,0.083c0.448-0.016,0.896-0.005,1.342,0.033
			c0.142,0.017,0.325,0.029,0.508,0.037c0.29,0.046,0.582,0.075,0.875,0.087c1.424,0.073,2.843,0.226,4.25,0.458
			c16.222,2.008,31.348,9.251,43.083,20.629c1.142,1.063,2.2,2.208,3.267,3.346c0.167,0.183,0.35,0.358,0.533,0.525
			c1.891,2.127,3.666,4.354,5.318,6.672l0.152,0.206c0.894,1.268,1.787,2.527,2.714,4.039c2.197,3.483,4.087,7.15,5.649,10.96
			l-47.686,46.997c-8.047,0.897-32.122,5.907-60.179,33.967c-10.658,10.667-5.217,32.196,12.667,50.079
			c6.985,7.23,15.518,12.782,24.958,16.237c3.496,1.22,7.165,1.87,10.867,1.925c5.302,0.185,10.451-1.798,14.258-5.492
			c28.289-28.289,33.148-52.518,33.986-60.365l17.256-17.006v74.312c0.013,17.184-5.193,33.967-14.929,48.126
			c-17.331-14.553-39.239-22.53-61.871-22.526h-17.067c-22.631-0.004-44.539,7.973-61.871,22.526
			c-9.736-14.159-14.943-30.942-14.929-48.126V213.334z M168.554,247.751l18.931,18.751c-1.002,6.453-5.834,25.674-28.913,48.756
			c-0.475,0.479-3.05,0.983-7.658-0.558c-6.918-2.636-13.165-6.772-18.292-12.113c-12.459-12.459-14.317-24.296-12.667-25.946
			C142.844,253.753,161.943,248.808,168.554,247.751z M195.936,385.417c-33.027,32.244-85.75,32.244-118.777,0
			c14.25-11.952,32.257-18.496,50.855-18.483h17.067C163.679,366.92,181.687,373.465,195.936,385.417z M256.014,281.6v213.333
			H17.081V281.6c0.04-19.254,5.998-38.03,17.067-53.785v96.452c-0.006,24.306,8.678,47.813,24.484,66.278
			c0.158,0.256,0.33,0.503,0.516,0.739c0.108,0.102,0.251,0.132,0.363,0.228c19.369,22.328,47.473,35.154,77.031,35.155
			s57.664-12.821,77.035-35.147c0.115-0.098,0.259-0.131,0.37-0.236c0.186-0.236,0.358-0.483,0.516-0.739
			c15.806-18.465,24.49-41.972,24.484-66.278v-91.132l2.171-2.14C250.813,246.095,255.982,263.656,256.014,281.6z M196.298,251.204
			l-12.375-12.254l46.833-46.158c0.677-0.49,1.276-1.079,1.775-1.749l69.851-68.843l4.017,3.978l8.357,8.277L196.298,251.204z
			 M363.765,146.609c-3.463,3.408-9.02,3.408-12.483,0l-18.372-18.196l-0.003-0.004l-24.5-24.267l-0.008-0.006l-18.375-18.198
			c-1.63-1.605-2.547-3.799-2.542-6.086s0.93-4.478,2.567-6.076l54.3-54.154c1.654-1.633,3.884-2.551,6.208-2.554h144.292
			l0.083-0.029L363.765,146.609z"/>
	</g>
</g>
</svg>
