<svg xmlns="http://www.w3.org/2000/svg" viewBox="0 0 474.9 474.9" width="21px">
<g transform="translate(0 -540.36)">
	<g>
		<g>
			<path fill="#607282" stroke-width="1" d="M382.654,668.86c24,0,43.5-19.5,43.5-43.5s-19.5-43.5-43.5-43.5s-43.5,19.5-43.5,43.5S358.654,668.86,382.654,668.86z      M382.654,596.86c15.7,0,28.5,12.8,28.5,28.5s-12.8,28.5-28.5,28.5s-28.5-12.8-28.5-28.5S366.954,596.86,382.654,596.86z"/>
			<path fill="#607282" stroke-width="1" d="M267.354,675.26l-61.7,55.8l-6.9-7.7c-2.8-3.1-7.5-3.3-10.6-0.5c-3.1,2.8-3.3,7.5-0.5,10.6l6.9,7.7l-9.6,8.7l-6.9-7.7     c-2.8-3.1-7.5-3.3-10.6-0.5c-3.1,2.8-3.3,7.5-0.5,10.6l6.9,7.7l-29,26.1c-3.1,2.8-3.3,7.5-0.5,10.6s7.5,3.3,10.6,0.5l29-26.1     l31.9,35.3c2.8,3.1,7.5,3.3,10.6,0.5c3.1-2.8,3.3-7.5,0.5-10.6l-31.9-35.3l9.6-8.7l16.8,18.6v0c18.6,20.5,51.1,21.5,72.6,2.1     s24.1-51.4,6-72.8c-0.1-0.1-0.1-0.1-0.2-0.2l-21.9-24.2C275.154,672.66,270.454,672.46,267.354,675.26z M288.654,709.96     c12.8,15.2,10.7,37.9-4.7,51.8c-15.3,13.8-38.4,13.4-51.4-1l-16.8-18.6l56.2-50.7L288.654,709.96z"/>
			<path fill="#607282" stroke-width="1" d="M459.954,540.36h-186.4c-1.8,0-3.5,0.6-4.9,1.8l-258.6,222.6c-1.6,1.3-2.5,3.3-2.6,5.4s0.7,4.1,2.2,5.6l186.4,183.1     c1.5,1.4,3.4,2.1,5.3,2.1v0c1.7,0,3.5-0.6,4.9-1.7l258.6-221.9c1.6-1.4,2.6-3.5,2.6-5.7v-183.8     C467.454,543.76,464.054,540.36,459.954,540.36z M452.554,728.16l-250.8,215.1l-175.7-172.5v0l250.4-215.5h176.1V728.16z"/>
			<path fill="#607282" stroke-width="1" d="M455.054,780.26l-253.3,217.3l-181.5-181.3c-2.9-2.9-7.7-2.9-10.6,0c-2.9,2.9-2.9,7.7,0,10.6l186.4,186.2     c1.5,1.5,3.4,2.2,5.3,2.2c1.7,0,3.5-0.6,4.9-1.7l258.6-221.9c3.1-2.7,3.5-7.5,0.8-10.6S458.154,777.56,455.054,780.26z"/>
		</g>
	</g>
</g>
</svg>
