<svg xmlns="http://www.w3.org/2000/svg" version="1.1" xmlns:xlink="http://www.w3.org/1999/xlink" xmlns:svgjs="http://svgjs.com/svgjs" height="149" width="261.04296875"><defs id="SvgjsDefs1847"></defs><g id="SvgjsG1848" rel="mainfill" name="main_text" xmlns:name="main_text" transform="translate(-0.12890625,-122)" fill="#a0a0a0"><path d="M29.96 224.94L34.08 220.90L40.85 218.94Q41.44 219.28 41.95 219.66Q42.29 219.92 42.85 220.43L44.12 221.70Q45.02 222.72 45.44 223.62Q45.78 224.51 45.78 225.49Q45.78 226.04 45.74 226.68Q45.70 227.32 45.57 228.13L44.72 233.40L44.25 236.30L44.21 236.55L44.17 236.85L44.04 237.32Q42.38 238.77 40.72 239.62L36.00 241.53L33.87 242.17L34.59 240.64L35.15 238.60Q36.34 233.66 36.34 230.00L36.30 228.72L33.36 225.87L31.91 227.83Q31.53 228.43 30.89 229.87Q30.51 230.77 30.13 231.62L29.10 239.36L19.79 240.64L21.32 232.09L21.32 227.70L18.42 225.32Q17.74 226.04 17.28 226.64Q16.81 227.24 16.42 227.83Q15.53 229.23 14.64 231.40L13.87 239.36L4.47 240.64L5.57 229.41L0.13 221.49L6.34 220.30L10.25 218.00L14.17 221.19L14.38 224.89L17.57 221.24L25.62 218.68L29.70 222.30L29.96 224.94ZM80.67 217.53L58.93 248.94L50.68 250.30L59.61 237.74L55.02 226.64L47.61 220.60L53.78 219.36L57.57 217.11L62.76 219.83L65.78 230.43L71.14 219.41L80.67 217.53ZM94.21 216.90L101.40 219.62L99.14 228.72Q97.82 226.98 96.21 225.75Q95.27 224.89 94.29 224.47Q92.72 223.66 89.99 223.11L89.23 225.66Q88.76 227.87 88.76 229.83Q88.76 231.92 89.87 232.89Q90.97 233.87 93.40 233.87Q94.50 233.87 95.14 233.83Q95.78 233.79 96.84 233.66Q97.91 233.53 99.08 233.36Q100.25 233.19 101.48 232.94L97.86 239.70Q96.25 240.17 94.76 240.38Q92.38 240.77 90.46 240.77Q88.42 240.77 86.72 240.34Q84.89 239.96 83.48 239.15Q82.76 238.77 82.19 238.34Q81.61 237.92 81.14 237.32Q79.53 235.32 79.53 232.17Q79.53 230.89 79.70 229.58Q79.87 228.26 80.21 226.60Q80.80 224.26 82.04 221.28L88.55 219.83L90.46 218.68L92.33 217.62Q93.48 217.02 94.21 216.90ZM121.95 218.09Q124.16 218.43 125.97 219.11Q127.78 219.79 128.67 220.34Q130.42 221.41 131.50 223.51Q132.59 225.62 132.59 227.79Q132.59 229.83 131.69 231.49Q131.05 232.64 129.78 233.66Q128.67 234.55 126.03 235.96L122.84 237.79Q121.27 238.72 119.40 240.81Q114.71 240.17 112.03 239.26Q109.35 238.34 107.67 237.02Q105.99 235.70 105.18 233.92Q104.38 232.13 104.38 229.66Q104.38 227.19 105.35 225.09Q106.33 222.98 108.16 221.53Q109.57 220.43 111.65 219.79Q112.67 219.49 114.06 219.19Q115.44 218.90 117.10 218.72Q115.44 220.26 114.35 222.60Q113.27 224.94 113.27 227.28Q113.27 230.72 116.50 232.32Q119.74 233.92 123.10 234.26Q123.52 232.30 123.52 230.94Q123.52 227.62 121.42 225.70Q119.31 223.79 115.14 223.41L121.95 218.09ZM157.82 218.94L156.03 224.47Q154.54 223.66 154.33 223.58Q153.65 223.24 152.92 223.07Q151.61 222.64 149.61 222.38Q147.61 222.13 145.56 222.13L144.88 222.13L144.71 222.60L144.46 223.58L144.33 224.34Q144.33 224.81 144.65 225.00Q144.97 225.19 146.24 225.32L149.65 225.41L153.90 225.70Q157.22 226.04 158.03 226.51Q158.63 226.85 159.01 227.72Q159.39 228.60 159.39 229.49Q159.39 231.96 158.03 235.92Q157.18 236.09 156.99 236.15Q156.80 236.21 156.16 236.51Q155.52 236.81 154.24 237.74Q153.48 238.26 153.14 238.55Q152.97 238.68 152.27 239.36Q151.56 240.04 150.33 241.62Q148.67 241.62 147.50 241.47Q146.33 241.32 143.95 240.85L140.29 240.13L137.35 239.53L136.33 239.15L135.99 233.11L137.31 233.75Q138.63 234.21 141.63 234.81Q144.63 235.40 147.18 235.66L150.12 235.96L150.92 236.00L151.05 234.81Q151.05 233.83 150.50 233.45Q150.20 233.23 149.65 233.09Q149.10 232.94 148.33 232.94L144.41 232.55L140.97 232.30Q137.78 231.96 137.05 230.51Q136.54 229.53 136.54 227.02Q136.54 225.06 137.05 222.81L141.10 221.19L142.07 220.47L142.59 220.04L144.97 218.26Q145.48 217.92 146.39 217.62Q147.31 217.32 149.05 217.32Q151.99 217.32 154.63 217.96Q155.95 218.26 157.82 218.94ZM191.26 224.94L195.39 220.90L202.16 218.94Q202.75 219.28 203.26 219.66Q203.60 219.92 204.15 220.43L205.43 221.70Q206.32 222.72 206.75 223.62Q207.09 224.51 207.09 225.49Q207.09 226.04 207.05 226.68Q207.01 227.32 206.88 228.13L206.03 233.40L205.56 236.30L205.52 236.55L205.47 236.85L205.35 237.32Q203.69 238.77 202.03 239.62L197.30 241.53L195.18 242.17L195.90 240.64L196.45 238.60Q197.64 233.66 197.64 230.00L197.60 228.72L194.67 225.87L193.22 227.83Q192.84 228.43 192.20 229.87Q191.82 230.77 191.43 231.62L190.41 239.36L181.09 240.64L182.62 232.09L182.62 227.70L179.73 225.32Q179.05 226.04 178.58 226.64Q178.11 227.24 177.73 227.83Q176.84 229.23 175.94 231.40L175.18 239.36L165.77 240.64L166.88 229.41L161.43 221.49L167.65 220.30L171.56 218.00L175.48 221.19L175.69 224.89L178.88 221.24L186.92 218.68L191.01 222.30L191.26 224.94ZM220.96 230.55Q223.17 230.00 224.17 229.17Q225.17 228.34 225.17 227.11Q225.17 225.83 224.15 224.72Q223.64 224.17 222.86 223.64Q222.07 223.11 220.83 222.55Q220.41 223.58 220.20 224.94Q219.81 227.24 219.81 228.72Q219.81 230.89 220.37 232.00Q220.62 232.60 221.05 233.00Q221.47 233.40 222.20 233.70Q223.52 234.17 225.77 234.17Q227.34 234.17 229.11 233.87Q230.88 233.57 233.47 232.60L229.64 239.49L228.75 239.74Q228.11 239.91 227.56 240.02Q227.00 240.13 225.39 240.34Q223.77 240.55 222.49 240.55Q219.69 240.55 216.69 239.68Q213.69 238.81 212.03 236.60Q210.37 234.38 210.37 231.23Q210.37 228.68 210.88 226.15Q211.39 223.62 212.28 222.21Q212.54 221.83 212.75 221.60Q212.96 221.36 213.35 221.15Q213.73 220.94 214.11 220.77Q214.49 220.60 215.11 220.45Q215.73 220.30 216.64 220.11Q217.56 219.92 218.49 219.75L221.86 218.47Q222.79 218.09 223.77 217.66Q224.37 217.41 225.13 217.19Q225.90 216.98 226.75 216.98Q227.81 216.98 229.30 217.79Q230.79 218.60 232.32 220.00Q233.85 221.41 233.85 223.36Q233.85 223.92 233.81 224.26Q233.77 224.60 233.64 225.24Q233.13 227.58 231.73 228.81Q229.26 230.81 224.32 230.81Q223.00 230.81 220.96 230.55ZM252.45 210.34L250.75 219.41L258.49 219.41L256.11 224.51L249.98 224.26L249.13 230.77L249.13 231.11L249.09 231.45Q249.09 233.96 250.94 235.06Q252.79 236.17 256.02 236.17Q257.21 236.17 258.34 235.96Q259.47 235.75 261.17 235.19L258.70 239.53L257.85 239.83L257.04 240.09L256.45 240.30Q253.64 241.11 250.83 241.11Q248.58 241.11 246.22 240.60Q243.85 240.09 242.49 239.36Q241.56 238.85 240.79 237.66Q240.11 236.43 240.11 235.45L240.11 235.19L240.92 224.30L235.00 224.43L238.02 219.41L241.85 219.41L242.75 214.47L252.45 210.34Z" fill="#a0a0a0"></path></g><g id="SvgjsG1849" rel="mainfill" name="slogan_text" xmlns:name="slogan_text" transform="translate(71.041015625,-93)" fill="#a0a0a0"><path d="M7.89 236.86C6.66 233.72 5.27 230.56 3.77 227.42L1.82 227.42L1.82 240L3.09 240L3.09 228.86C4.57 232.11 5.97 235.38 7.33 238.63L8.28 238.63C9.62 235.45 11.05 232.18 12.58 228.86L12.58 240L13.88 240L13.88 227.42L12.06 227.42C10.52 230.54 9.10 233.70 7.89 236.86ZM24.53 233.95C26.24 231.86 27.87 229.66 29.44 227.42L27.94 227.42C26.73 229.26 25.36 231.17 23.97 232.92C22.74 231.07 21.35 229.15 19.95 227.42L18.30 227.42C20.16 229.69 21.79 231.86 23.21 233.95L23.21 240L24.53 240ZM41.06 233.59C41.06 238.72 42.92 240.25 46.82 240.25C47.94 240.25 49.37 240.05 50.34 239.75L49.93 238.59C49.17 238.88 47.81 239.06 46.84 239.06C43.66 239.06 42.47 238.19 42.47 233.59C42.47 228.97 43.66 228.29 46.84 228.29C47.81 228.29 49.17 228.47 49.93 228.77L50.34 227.60C49.37 227.31 47.94 227.11 46.82 227.11C42.92 227.11 41.06 228.45 41.06 233.59ZM56.62 233.84L63.30 233.84L63.30 240L64.58 240L64.58 227.42L63.30 227.42L63.30 232.67L56.62 232.67L56.62 227.42L55.32 227.42L55.32 240L56.62 240ZM75.94 240.25C72.02 240.25 70.23 238.84 70.23 233.65C70.23 228.52 72.04 227.11 75.94 227.11C79.85 227.11 81.66 228.52 81.66 233.65C81.66 238.84 79.87 240.25 75.94 240.25ZM75.94 228.21C72.74 228.21 71.64 229.06 71.64 233.68C71.64 238.07 72.74 239.12 75.94 239.12C79.17 239.12 80.29 238.07 80.29 233.68C80.29 229.06 79.17 228.21 75.94 228.21ZM88.63 227.42L88.63 240L87.33 240L87.33 227.42ZM94.28 233.59C94.28 238.72 96.13 240.25 100.03 240.25C101.15 240.25 102.58 240.05 103.55 239.75L103.14 238.59C102.38 238.88 101.03 239.06 100.05 239.06C96.87 239.06 95.68 238.19 95.68 233.59C95.68 228.97 96.87 228.29 100.05 228.29C101.03 228.29 102.38 228.47 103.14 228.77L103.55 227.60C102.58 227.31 101.15 227.11 100.03 227.11C96.13 227.11 94.28 228.45 94.28 233.59ZM117.14 227.42L117.14 228.50L109.83 228.50L109.83 232.73L115.01 232.73L115.01 233.81L109.83 233.81L109.83 238.92L117.14 238.92L117.14 240L108.53 240L108.53 227.42Z" fill="#a0a0a0"></path></g><g id="SvgjsG1850" rel="mainfill" name="symbol" xmlns:name="symbol_mainfill" transform="translate(85,-3.5803125000000002) scale(0.86)" fill="#a0a0a0"><g fill="#a0a0a0"><g fill="#a0a0a0"><path fill-rule="evenodd" clip-rule="evenodd" d="M72.604,35.565L50.038,7.749L27.561,35.565L2.691,4.801l6.355,68.422h82.165    l6.079-68.514L72.604,35.565z M8.905,95.884h82.216V84.098H8.905V95.884z" fill="#a0a0a0"></path></g></g></g></svg>