<svg xmlns="http://www.w3.org/2000/svg" version="1.1" xmlns:xlink="http://www.w3.org/1999/xlink" xmlns:svgjs="http://svgjs.com/svgjs" height="255.564375" width="255.8221875"><defs id="SvgjsDefs2106"></defs><g id="SvgjsG2107" transform="translate(0,0) scale(2.64)" rel="inversefill" name="filled_container" xmlns:name="filledContainer_inversefill" fill="#88A3BE"><path d="M96.9 48.4c0 .8-1.3 1.5-1.4 2.2s1.2 1.6 1.2 2.4-1.5 1.4-1.6 2.1 1.1 1.7.9 2.5-1.6 1.2-1.8 1.9.9 1.8.7 2.5-1.7 1.1-1.9 1.8.7 1.9.4 2.6-1.8.9-2.1 1.6.5 2 .2 2.6-1.9.7-2.2 1.4.3 2-.1 2.6-1.9.5-2.4 1.1.2 2-.3 2.6-2 .3-2.5.9 0 2-.6 2.6-2 .2-2.5.7-.2 2-.8 2.5-2 0-2.6.4-.4 2-1 2.4-2-.2-2.6.2-.6 1.9-1.3 2.3-2-.4-2.6-.1-.8 1.9-1.5 2.2-1.9-.6-2.6-.3-1 1.8-1.7 2-1.8-.8-2.6-.6-1.1 1.7-1.9 1.9-1.8-1-2.5-.8-1.3 1.6-2 1.7-1.7-1.1-2.4-1-1.4 1.4-2.2 1.5-1.5-1.3-2.3-1.3-1.6 1.3-2.3 1.3-1.4-1.4-2.2-1.5-1.7 1.1-2.4 1-1.3-1.5-2-1.7-1.8 1-2.5.8-1.1-1.6-1.9-1.9-1.9.8-2.6.6-1-1.7-1.7-2-1.9.6-2.6.3-.8-1.8-1.5-2.2-2 .4-2.6.1-.6-1.9-1.3-2.3-2 .3-2.6-.2-.4-2-1-2.4-2 .1-2.6-.4-.2-2-.8-2.5-2-.1-2.5-.7-.1-2-.6-2.6-2-.3-2.5-.9.1-2-.3-2.6-2-.5-2.4-1.1.3-2-.1-2.6-1.9-.7-2.2-1.4.5-1.9.2-2.6-1.8-.9-2.1-1.6.7-1.9.4-2.6-1.7-1-1.9-1.8.9-1.8.7-2.5S1 58.3.9 57.6s1-1.7.9-2.5S.3 53.8.2 53s1.2-1.6 1.2-2.4S0 49.2 0 48.4s1.3-1.5 1.4-2.2S.1 44.6.2 43.8s1.5-1.4 1.6-2.1S.7 40 .9 39.2s1.6-1.2 1.7-1.9-.9-1.8-.7-2.5 1.8-1.1 2-1.8-.7-1.9-.4-2.6 1.8-.9 2.1-1.6-.5-1.9-.2-2.6 1.9-.7 2.2-1.4-.3-2 .1-2.6 1.9-.5 2.4-1.1-.2-2 .3-2.6 2-.3 2.5-.9 0-2 .6-2.6 2-.2 2.5-.7.2-2 .8-2.5 2 0 2.6-.4.4-2 1-2.4 2 .2 2.6-.2.6-1.9 1.3-2.3 2 .4 2.6.1.8-1.9 1.5-2.2 1.9.6 2.6.3.9-1.8 1.7-2 1.8.8 2.6.6 1-1.8 1.7-2 1.8 1 2.5.8S40.8.5 41.6.4s1.7 1.1 2.4 1S45.4 0 46.2 0s1.5 1.3 2.3 1.3S50 0 50.8 0s1.4 1.4 2.2 1.5S54.6.3 55.4.4s1.3 1.5 2 1.7 1.8-1 2.5-.8S61 3 61.8 3.2s1.9-.8 2.6-.6 1 1.7 1.7 2 1.9-.6 2.6-.3.8 1.8 1.5 2.2 2-.4 2.6-.1.6 1.9 1.3 2.3 2-.3 2.6.2.4 2 1 2.4 2-.1 2.6.4.2 2 .8 2.5 2 .1 2.5.7.1 2 .6 2.6 2 .3 2.5.9-.1 2 .3 2.6 2 .5 2.4 1.1-.3 2 .1 2.6 1.9.7 2.2 1.4-.5 1.9-.2 2.6 1.8.9 2.1 1.6-.7 1.9-.4 2.6 1.7 1 1.9 1.8-.9 1.8-.7 2.5 1.6 1.2 1.8 1.9-1 1.7-.9 2.5 1.5 1.3 1.6 2.1-1.2 1.6-1.2 2.4 1.2 1.6 1.2 2.3z" fill="#88A3BE" style="fill: rgb(136, 163, 190);"></path></g><g id="SvgjsG2108" rel="mainfill" name="main_text" xmlns:name="main_text" fill="#000000" transform="translate(35.747031250000006,-109.66703125)"><path d="M10.89 227.25L9.60 228.59Q9.50 230.09 9.50 231.33Q9.50 232.57 9.60 234.73Q9.65 237.52 8.65 238.89Q7.64 240.26 5.78 240.26Q4.34 240.26 3.67 239.33Q2.99 238.40 2.99 235.56Q2.99 234.84 3.12 231.77Q3.25 228.70 3.36 225.08Q3.36 224.82 3.36 224.46Q3.36 224.10 3.36 220.85Q3.30 218.37 4.16 217.47Q5.01 216.56 6.61 216.51Q8.31 216.56 9.24 217.67Q10.17 218.78 9.96 220.80Q14.30 217.85 15.36 217.42Q16.42 216.98 17.29 216.93Q18.33 216.93 18.94 217.75Q19.56 218.58 19.67 220.07Q22.25 218.01 23.90 217.05Q25.55 216.10 26.69 216.05Q28.65 216.05 29.50 217.24Q30.35 218.42 30.35 220.85Q30.35 225.65 29.99 227.51Q29.63 229.37 29.63 230.91Q29.63 231.95 29.68 232.62Q29.73 233.29 29.94 233.70L30.20 234.37Q30.82 236.08 30.02 237.73Q29.22 239.38 26.95 239.38Q24.93 239.38 24.00 238.09Q23.07 236.80 23.07 234.37Q23.07 233.24 23.28 230.50Q23.49 227.77 23.59 224.51Q23.59 224.31 23.59 224.13Q23.59 223.95 23.59 223.74Q23.54 223.12 23.51 223.02Q23.49 222.91 23.44 222.91Q23.02 222.91 21.71 224.08Q20.39 225.24 19.51 226.27Q19.51 226.79 19.51 227.12Q19.51 227.46 19.62 229.73Q19.62 231.28 19.72 232.33Q19.82 233.39 19.87 234.22Q19.82 236.90 18.79 238.24Q17.76 239.59 16.36 239.59Q14.66 239.59 13.89 238.50Q13.11 237.42 13.11 235.10Q13.11 231.53 13.34 229.70Q13.58 227.87 13.58 226.68Q13.58 226.22 13.50 225.96Q13.42 225.70 13.32 225.70Q13.06 225.70 12.16 226.29Q11.25 226.89 10.89 227.25ZM40.21 217.55L41.45 220.33Q42.28 222.24 42.59 222.94Q42.90 223.64 43.31 224.36Q43.52 223.84 43.64 223.58Q43.77 223.33 43.88 223.07Q44.14 222.40 44.86 220.67Q45.58 218.94 45.99 218.01L47.08 215.58Q47.54 214.55 50.05 214.58Q52.55 214.60 51.57 217.49L48.73 225.75Q45.32 235.66 42.82 241.99Q40.32 248.31 37.73 254.04L36.60 256.52Q36.13 257.50 35.57 257.94Q35.00 258.38 34.33 258.38Q33.35 258.38 32.62 257.68Q31.90 256.98 31.90 255.90Q31.90 255.59 31.98 255.28Q32.06 254.97 38.04 238.30L40.11 232.57Q37.01 227.20 35.21 223.38Q33.40 219.56 33.40 218.47Q33.40 217.03 34.51 216.05Q35.62 215.07 36.96 215.07Q37.94 215.07 38.77 215.66Q39.59 216.25 40.21 217.55ZM72.11 236.85Q70.15 238.66 67.85 239.48Q65.56 240.31 62.56 240.31Q58.59 240.31 55.72 237.21Q52.86 234.12 52.86 229.57Q52.86 223.38 57.09 218.99Q61.32 214.60 65.97 214.55Q68.14 214.55 69.43 215.87Q70.72 217.18 70.77 218.94Q70.77 219.97 70.23 220.56Q69.69 221.16 68.76 221.16Q68.71 221.21 68.66 221.18Q68.60 221.16 67.36 220.64Q67.05 220.54 66.87 220.51Q66.69 220.49 66.54 220.44Q64.01 220.44 61.69 222.97Q59.36 225.49 59.36 229.06Q59.36 231.84 60.94 233.34Q62.51 234.84 65.25 234.84Q66.02 234.84 66.64 234.71Q67.26 234.58 68.96 233.70Q69.84 233.29 70.36 233.06Q70.87 232.82 71.18 232.82Q72.17 232.82 72.76 233.37Q73.35 233.91 73.35 234.79Q73.35 235.25 73.07 235.74Q72.78 236.23 72.11 236.85ZM92.56 227.82Q92.50 233.13 89.61 236.70Q86.72 240.26 82.75 240.26Q78.82 240.26 76.42 236.62Q74.02 232.98 74.02 226.89Q74.02 221.11 76.50 217.73Q78.98 214.34 83.32 214.34Q87.96 214.40 90.26 218.11Q92.56 221.83 92.56 227.82M86.72 227.66Q86.72 223.89 85.87 221.70Q85.02 219.51 83.83 219.51Q82.39 219.51 81.46 221.60Q80.53 223.69 80.53 227.15Q80.53 229.99 81.53 232.02Q82.54 234.06 83.88 234.06Q84.97 234.06 85.84 232.18Q86.72 230.30 86.72 227.66ZM103.29 231.38L101.02 229.99Q98.29 228.33 96.92 226.22Q95.55 224.10 95.55 221.78Q95.55 218.47 98.80 215.97Q102.05 213.47 105.67 213.47Q107.22 213.52 108.12 214.37Q109.02 215.22 109.02 216.51Q109.02 217.55 108.27 218.24Q107.53 218.94 105.05 219.76Q102.78 220.59 102.31 220.95Q101.85 221.31 101.85 221.73Q101.85 222.19 102.41 222.91Q102.98 223.64 103.81 224.10L106.29 225.65Q109.85 227.92 110.85 229.21Q111.86 230.50 111.86 231.84Q111.86 235.56 106.47 239.23Q101.07 242.89 96.22 242.89Q94.93 242.89 94.34 242.30Q93.74 241.70 93.74 240.77Q93.74 240 94.10 239.59Q94.47 239.17 96.01 238.66L97.98 238.04Q100.81 237.16 103.19 235.59Q105.56 234.01 105.56 233.13Q105.56 232.98 105.38 232.77Q105.20 232.57 103.29 231.38ZM123.01 227.25L121.72 228.59Q121.62 230.09 121.62 231.33Q121.62 232.57 121.72 234.73Q121.77 237.52 120.77 238.89Q119.76 240.26 117.90 240.26Q116.46 240.26 115.78 239.33Q115.11 238.40 115.11 235.56Q115.11 234.84 115.24 231.77Q115.37 228.70 115.47 225.08Q115.47 224.82 115.47 224.46Q115.47 224.10 115.47 220.85Q115.42 218.37 116.27 217.47Q117.13 216.56 118.73 216.51Q120.43 216.56 121.36 217.67Q122.29 218.78 122.08 220.80Q126.42 217.85 127.48 217.42Q128.53 216.98 129.41 216.93Q130.44 216.93 131.06 217.75Q131.68 218.58 131.79 220.07Q134.37 218.01 136.02 217.05Q137.67 216.10 138.81 216.05Q140.77 216.05 141.62 217.24Q142.47 218.42 142.47 220.85Q142.47 225.65 142.11 227.51Q141.75 229.37 141.75 230.91Q141.75 231.95 141.80 232.62Q141.85 233.29 142.06 233.70L142.32 234.37Q142.94 236.08 142.14 237.73Q141.34 239.38 139.07 239.38Q137.05 239.38 136.12 238.09Q135.19 236.80 135.19 234.37Q135.19 233.24 135.40 230.50Q135.61 227.77 135.71 224.51Q135.71 224.31 135.71 224.13Q135.71 223.95 135.71 223.74Q135.66 223.12 135.63 223.02Q135.61 222.91 135.55 222.91Q135.14 222.91 133.83 224.08Q132.51 225.24 131.63 226.27Q131.63 226.79 131.63 227.12Q131.63 227.46 131.74 229.73Q131.74 231.28 131.84 232.33Q131.94 233.39 131.99 234.22Q131.94 236.90 130.91 238.24Q129.88 239.59 128.48 239.59Q126.78 239.59 126.01 238.50Q125.23 237.42 125.23 235.10Q125.23 231.53 125.46 229.70Q125.70 227.87 125.70 226.68Q125.70 226.22 125.62 225.96Q125.54 225.70 125.44 225.70Q125.18 225.70 124.28 226.29Q123.37 226.89 123.01 227.25ZM165.55 235.15Q163.84 237.11 160.67 238.50Q157.49 239.90 154.96 239.90Q151.09 239.90 148.74 237.42Q146.40 234.94 146.40 230.24Q146.40 224.05 150.06 219.48Q153.73 214.91 158.16 214.91Q160.02 214.91 161.37 216.02Q162.71 217.13 162.71 218.78Q162.66 221.06 160.41 224.33Q158.16 227.61 153.31 232.31Q153.88 233.44 154.47 233.81Q155.07 234.17 156.05 234.17Q157.29 234.17 158.86 233.65Q160.44 233.13 163.07 231.59Q164.41 230.81 165.44 231.41Q166.48 232.00 166.48 233.34Q166.48 233.75 166.27 234.17Q166.06 234.58 165.55 235.15M155.22 223.12L156.15 221.93L156.82 220.85Q155.58 220.69 154.24 222.45Q152.90 224.20 152.90 225.86Q155.38 222.91 155.27 223.07Q155.17 223.22 155.22 223.12ZM166.68 212.13L166.48 208.25Q166.37 206.60 167.25 205.31Q168.13 204.02 169.73 203.97Q171.48 204.02 172.28 204.95Q173.08 205.88 173.08 208.56L173.08 208.92L175.30 207.84Q178.71 206.19 178.86 206.16Q179.02 206.14 179.17 206.14Q180.15 206.14 180.75 206.55Q181.34 206.96 181.34 207.74Q181.34 208.67 180.67 209.41Q180.00 210.16 177.78 211.40L173.29 213.93L173.91 218.58Q175.72 232.31 175.15 232.02Q174.58 231.74 174.73 231.74Q175.10 231.74 176.23 230.45Q177.37 229.16 178.35 229.16Q179.48 229.21 180.28 229.73Q181.08 230.24 181.08 231.07Q181.08 231.59 180.85 232.02Q180.62 232.46 179.48 233.55L178.19 234.79Q177.63 235.30 176.64 236.64Q175.66 237.99 174.99 238.81Q174.12 239.85 172.98 240.34Q171.84 240.83 170.66 240.88Q169.47 240.88 168.77 239.97Q168.08 239.07 168.08 237.68Q168.08 236.90 168.10 235.33Q168.13 233.75 168.13 232.98Q168.13 231.64 168.02 229.78Q167.92 227.92 167.66 223.58L167.25 217.55Q166.42 218.37 165.47 218.96Q164.51 219.56 163.95 219.56Q162.76 219.61 162.06 219.07Q161.37 218.53 161.37 217.49Q161.42 216.82 161.78 216.10Q162.14 215.38 166.68 212.13Z" fill="#000000" style="fill: rgb(0, 0, 0);"></path></g><g id="SvgjsG2109" rel="mainfill" name="slogan_text" xmlns:name="slogan_text" fill="#000000" transform="translate(87.581015625,-70.93656249999998)"><path d="M13.98 240L12.47 227.85L9.78 227.85L7.69 234.95C7.48 235.65 7.33 236.51 7.33 236.51L7.30 236.51C7.30 236.51 7.15 235.65 6.95 234.95L4.83 227.85L2.15 227.85L0.64 240L2.84 240L3.69 232.26C3.78 231.51 3.81 230.62 3.81 230.62L3.84 230.62C3.84 230.62 4.01 231.49 4.25 232.26L6.56 240L8.07 240L10.37 232.26C10.60 231.49 10.77 230.62 10.77 230.62L10.81 230.62C10.81 230.62 10.84 231.51 10.92 232.26L11.78 240ZM24.31 227.85L21.76 227.85L19.53 232.85L19.50 232.85L17.28 227.85L14.73 227.85L18.34 235.23L18.34 240L20.71 240L20.71 235.23ZM36.82 239.55L36.08 237.62C35.74 237.87 35.14 238.09 34.47 238.09C32.91 238.09 31.80 236.66 31.80 233.91C31.80 231.16 32.91 229.71 34.47 229.71C35.14 229.71 35.74 229.95 36.08 230.20L36.82 228.30C36.24 227.92 35.25 227.65 34.18 227.65C31.51 227.65 29.36 229.70 29.36 233.93C29.36 238.15 31.51 240.20 34.18 240.20C35.29 240.20 36.24 239.93 36.82 239.55ZM46.97 240L46.97 227.85L44.60 227.85L44.60 232.87L40.88 232.87L40.88 227.85L38.51 227.85L38.51 240L40.88 240L40.88 234.81L44.60 234.81L44.60 240ZM58.26 233.93C58.26 230.39 56.75 227.65 53.56 227.65C50.37 227.65 48.86 230.39 48.86 233.93C48.86 237.47 50.37 240.20 53.56 240.20C56.75 240.20 58.26 237.47 58.26 233.93ZM55.89 233.93C55.89 236.43 55.11 238.10 53.56 238.10C52.02 238.10 51.23 236.43 51.23 233.93C51.23 231.43 52.02 229.75 53.56 229.75C55.11 229.75 55.89 231.43 55.89 233.93ZM62.52 240L62.52 227.85L60.16 227.85L60.16 240ZM71.87 239.55L71.13 237.62C70.79 237.87 70.19 238.09 69.52 238.09C67.96 238.09 66.85 236.66 66.85 233.91C66.85 231.16 67.96 229.71 69.52 229.71C70.19 229.71 70.79 229.95 71.13 230.20L71.87 228.30C71.30 227.92 70.31 227.65 69.23 227.65C66.57 227.65 64.42 229.70 64.42 233.93C64.42 238.15 66.57 240.20 69.23 240.20C70.34 240.20 71.30 239.93 71.87 239.55ZM80.02 240L80.02 238.02L75.88 238.02L75.88 234.81L79.62 234.81L79.62 232.87L75.88 232.87L75.88 229.83L80.02 229.83L80.02 227.85L73.56 227.85L73.56 240Z" fill="#000000" style="fill: rgb(0, 0, 0);"></path></g></svg>